<svg width="37" height="36" viewBox="0 0 37 36" fill="none" xmlns="http://www.w3.org/2000/svg">
<circle cx="18.5544" cy="17.6486" r="17.6486" fill="#0468EF"/>
<path d="M16.203 26.4984V19.3664H13.4733C13.3316 19.3664 13.1957 19.3101 13.0955 19.2099C12.9953 19.1096 12.939 18.9737 12.939 18.832V16.0112C12.939 15.8695 12.9953 15.7335 13.0955 15.6333C13.1957 15.5331 13.3316 15.4768 13.4733 15.4768H16.1922V12.7462C16.1271 12.0986 16.2047 11.4447 16.4193 10.8303C16.634 10.2159 16.9805 9.65593 17.4346 9.18975C17.8888 8.72357 18.4395 8.36247 19.048 8.13181C19.6566 7.90115 20.3083 7.80652 20.9573 7.85458H23.232C23.3751 7.8543 23.5125 7.91027 23.6147 8.01042C23.7169 8.11057 23.7756 8.24687 23.7781 8.38992V10.7784C23.7751 10.9212 23.7162 11.0571 23.6141 11.1569C23.512 11.2568 23.3748 11.3128 23.232 11.3127H21.8103C20.2749 11.3127 19.9798 12.0402 19.9798 13.1099V15.4758H23.6301C23.706 15.4733 23.7815 15.4874 23.8514 15.517C23.9212 15.5466 23.9838 15.5911 24.0348 15.6474C24.0857 15.7036 24.1238 15.7703 24.1464 15.8428C24.1689 15.9153 24.1754 15.9918 24.1654 16.0671L23.835 18.8987C23.8185 19.0284 23.7549 19.1475 23.6565 19.2335C23.558 19.3195 23.4314 19.3664 23.3007 19.3654H20.0023V26.4974C20.0039 26.6233 19.9803 26.7483 19.9328 26.8649C19.8853 26.9816 19.8149 27.0875 19.7258 27.1765C19.6367 27.2655 19.5307 27.3358 19.414 27.3832C19.2973 27.4306 19.1723 27.4541 19.0464 27.4524H17.1472C17.0222 27.4526 16.8984 27.428 16.783 27.38C16.6676 27.332 16.563 27.2615 16.4751 27.1726C16.3872 27.0837 16.3179 26.9783 16.2712 26.8623C16.2245 26.7464 16.2013 26.6233 16.203 26.4984Z" fill="#FCFBFF"/>
</svg>
