<svg width="36" height="36" viewBox="0 0 36 36" fill="none" xmlns="http://www.w3.org/2000/svg">
<circle cx="17.8517" cy="17.6486" r="17.6486" fill="#0468EF"/>
<path d="M18.3288 15.1451C16.6877 15.1451 15.3484 16.4844 15.3484 18.1256C15.3484 19.7667 16.6877 21.106 18.3288 21.106C19.97 21.106 21.3093 19.7667 21.3093 18.1256C21.3093 16.4844 19.97 15.1451 18.3288 15.1451ZM27.2679 18.1256C27.2679 16.8913 27.2791 15.6683 27.2098 14.4363C27.1404 13.0054 26.814 11.7354 25.7676 10.689C24.719 9.64036 23.4512 9.31616 22.0203 9.24685C20.7861 9.17753 19.563 9.18871 18.3311 9.18871C17.0968 9.18871 15.8738 9.17753 14.6418 9.24685C13.2109 9.31616 11.9409 9.6426 10.8945 10.689C9.84587 11.7376 9.52167 13.0054 9.45235 14.4363C9.38304 15.6705 9.39422 16.8936 9.39422 18.1256C9.39422 19.3575 9.38304 20.5828 9.45235 21.8148C9.52167 23.2457 9.8481 24.5157 10.8945 25.5621C11.9431 26.6107 13.2109 26.9349 14.6418 27.0043C15.8761 27.0736 17.0991 27.0624 18.3311 27.0624C19.5653 27.0624 20.7883 27.0736 22.0203 27.0043C23.4512 26.9349 24.7212 26.6085 25.7676 25.5621C26.8162 24.5135 27.1404 23.2457 27.2098 21.8148C27.2813 20.5828 27.2679 19.3598 27.2679 18.1256ZM18.3288 22.7114C15.7911 22.7114 13.743 20.6633 13.743 18.1256C13.743 15.5878 15.7911 13.5397 18.3288 13.5397C20.8666 13.5397 22.9146 15.5878 22.9146 18.1256C22.9146 20.6633 20.8666 22.7114 18.3288 22.7114ZM23.1024 14.4229C22.5099 14.4229 22.0314 13.9444 22.0314 13.3519C22.0314 12.7594 22.5099 12.2809 23.1024 12.2809C23.6949 12.2809 24.1734 12.7594 24.1734 13.3519C24.1736 13.4926 24.146 13.632 24.0923 13.762C24.0385 13.892 23.9596 14.0101 23.8601 14.1096C23.7607 14.2091 23.6425 14.288 23.5125 14.3418C23.3825 14.3955 23.2431 14.4231 23.1024 14.4229Z" fill="#FCFBFF"/>
</svg>
