<svg width="36" height="36" viewBox="0 0 36 36" fill="none" xmlns="http://www.w3.org/2000/svg">
<circle cx="18.1486" cy="17.6486" r="17.6486" fill="#0468EF"/>
<g clip-path="url(#clip0_18580_1131)">
<path fill-rule="evenodd" clip-rule="evenodd" d="M24.3492 9.53973C25.1083 9.53973 25.8362 9.84126 26.3729 10.378C26.9096 10.9147 27.2112 11.6426 27.2112 12.4017V23.8494C27.2112 24.6084 26.9096 25.3364 26.3729 25.8731C25.8362 26.4098 25.1083 26.7113 24.3492 26.7113H12.9015C12.1425 26.7113 11.4145 26.4098 10.8778 25.8731C10.3411 25.3364 10.0396 24.6084 10.0396 23.8494V12.4017C10.0396 11.6426 10.3411 10.9147 10.8778 10.378C11.4145 9.84126 12.1425 9.53973 12.9015 9.53973H24.3492ZM14.8094 16.2176C14.5564 16.2176 14.3138 16.3181 14.1349 16.497C13.956 16.6759 13.8555 16.9185 13.8555 17.1716V21.9414C13.8555 22.1945 13.956 22.4371 14.1349 22.616C14.3138 22.7949 14.5564 22.8954 14.8094 22.8954C15.0625 22.8954 15.3051 22.7949 15.484 22.616C15.6629 22.4371 15.7634 22.1945 15.7634 21.9414V17.1716C15.7634 16.9185 15.6629 16.6759 15.484 16.497C15.3051 16.3181 15.0625 16.2176 14.8094 16.2176ZM17.6714 15.2636C17.4184 15.2636 17.1757 15.3641 16.9968 15.543C16.8179 15.7219 16.7174 15.9646 16.7174 16.2176V21.9414C16.7174 22.1945 16.8179 22.4371 16.9968 22.616C17.1757 22.7949 17.4184 22.8954 17.6714 22.8954C17.9244 22.8954 18.167 22.7949 18.3459 22.616C18.5248 22.4371 18.6254 22.1945 18.6254 21.9414V18.4499C18.9975 18.045 19.4502 17.7224 19.9542 17.5026C20.2719 17.3671 20.7499 17.3118 21.0818 17.4167C21.192 17.4447 21.2901 17.5076 21.3614 17.5961C21.411 17.6629 21.4873 17.8117 21.4873 18.1255V21.9414C21.4873 22.1945 21.5878 22.4371 21.7667 22.616C21.9456 22.7949 22.1883 22.8954 22.4413 22.8954C22.6943 22.8954 22.9369 22.7949 23.1158 22.616C23.2947 22.4371 23.3952 22.1945 23.3952 21.9414V18.1255C23.3952 17.4864 23.2331 16.9178 22.8954 16.4618C22.5846 16.0483 22.1497 15.7451 21.6542 15.5965C20.7937 15.3266 19.8407 15.4763 19.2044 15.7492C19.0005 15.8364 18.8021 15.9358 18.6101 16.0468C18.5701 15.827 18.4542 15.6282 18.2827 15.4851C18.1111 15.3419 17.8948 15.2636 17.6714 15.2636ZM14.8094 13.3556C14.5564 13.3556 14.3138 13.4562 14.1349 13.6351C13.956 13.814 13.8555 14.0566 13.8555 14.3096C13.8555 14.5626 13.956 14.8053 14.1349 14.9842C14.3138 15.1631 14.5564 15.2636 14.8094 15.2636C15.0625 15.2636 15.3051 15.1631 15.484 14.9842C15.6629 14.8053 15.7634 14.5626 15.7634 14.3096C15.7634 14.0566 15.6629 13.814 15.484 13.6351C15.3051 13.4562 15.0625 13.3556 14.8094 13.3556Z" fill="#FCFBFF"/>
</g>
<defs>
<clipPath id="clip0_18580_1131">
<rect width="22.8955" height="22.8955" fill="white" transform="translate(7.17773 6.67786)"/>
</clipPath>
</defs>
</svg>
